<svg width="292" height="47" viewBox="0 0 292 47" fill="none" xmlns="http://www.w3.org/2000/svg">
<path d="M30.216 1.072V9.84H11.912V19.312H25.608V27.824H11.912V46H0.968V1.072H30.216ZM46.912 1.072V46H35.968V1.072H46.912ZM71.099 46.448C67.8137 46.448 64.8697 45.9147 62.267 44.848C59.6643 43.7813 57.5737 42.2027 55.995 40.112C54.459 38.0213 53.6483 35.504 53.563 32.56H65.211C65.3817 34.224 65.9577 35.504 66.939 36.4C67.9203 37.2533 69.2003 37.68 70.779 37.68C72.4003 37.68 73.6803 37.3173 74.619 36.592C75.5577 35.824 76.027 34.7787 76.027 33.456C76.027 32.3467 75.643 31.4293 74.875 30.704C74.1497 29.9787 73.2323 29.3813 72.123 28.912C71.0563 28.4427 69.5203 27.9093 67.515 27.312C64.6137 26.416 62.2457 25.52 60.411 24.624C58.5763 23.728 56.9977 22.4053 55.675 20.656C54.3523 18.9067 53.691 16.624 53.691 13.808C53.691 9.62667 55.2057 6.36267 58.235 4.016C61.2643 1.62667 65.211 0.431999 70.075 0.431999C75.0243 0.431999 79.0137 1.62667 82.043 4.016C85.0723 6.36267 86.6937 9.648 86.907 13.872H75.067C74.9817 12.4213 74.4483 11.2907 73.467 10.48C72.4857 9.62666 71.227 9.2 69.691 9.2C68.3683 9.2 67.3017 9.56266 66.491 10.288C65.6803 10.9707 65.275 11.9733 65.275 13.296C65.275 14.7467 65.9577 15.8773 67.323 16.688C68.6883 17.4987 70.8217 18.3733 73.723 19.312C76.6243 20.2933 78.971 21.232 80.763 22.128C82.5977 23.024 84.1763 24.3253 85.499 26.032C86.8217 27.7387 87.483 29.936 87.483 32.624C87.483 35.184 86.8217 37.5093 85.499 39.6C84.219 41.6907 82.3417 43.3547 79.867 44.592C77.3923 45.8293 74.4697 46.448 71.099 46.448ZM92.362 23.472C92.362 19.0347 93.322 15.088 95.242 11.632C97.162 8.13333 99.8287 5.424 103.242 3.504C106.698 1.54133 110.602 0.559998 114.954 0.559998C120.287 0.559998 124.853 1.968 128.65 4.784C132.447 7.6 134.986 11.44 136.266 16.304H124.234C123.338 14.4267 122.058 12.9973 120.394 12.016C118.773 11.0347 116.917 10.544 114.826 10.544C111.455 10.544 108.725 11.7173 106.634 14.064C104.543 16.4107 103.498 19.5467 103.498 23.472C103.498 27.3973 104.543 30.5333 106.634 32.88C108.725 35.2267 111.455 36.4 114.826 36.4C116.917 36.4 118.773 35.9093 120.394 34.928C122.058 33.9467 123.338 32.5173 124.234 30.64H136.266C134.986 35.504 132.447 39.344 128.65 42.16C124.853 44.9333 120.287 46.32 114.954 46.32C110.602 46.32 106.698 45.36 103.242 43.44C99.8287 41.4773 97.162 38.768 95.242 35.312C93.322 31.856 92.362 27.9093 92.362 23.472ZM181.88 1.072V46H170.936V27.504H153.912V46H142.968V1.072H153.912V18.672H170.936V1.072H181.88ZM217.749 38.064H200.981L198.293 46H186.837L203.093 1.072H215.765L232.021 46H220.437L217.749 38.064ZM214.933 29.616L209.365 13.168L203.861 29.616H214.933ZM247.912 1.072V46H236.968V1.072H247.912ZM278.755 46L269.411 29.04H266.787V46H255.843V1.072H274.211C277.752 1.072 280.76 1.69066 283.235 2.928C285.752 4.16533 287.63 5.872 288.867 8.048C290.104 10.1813 290.723 12.5707 290.723 15.216C290.723 18.2027 289.87 20.8693 288.163 23.216C286.499 25.5627 284.024 27.2267 280.739 28.208L291.107 46H278.755ZM266.787 21.296H273.571C275.576 21.296 277.07 20.8053 278.051 19.824C279.075 18.8427 279.587 17.456 279.587 15.664C279.587 13.9573 279.075 12.6133 278.051 11.632C277.07 10.6507 275.576 10.16 273.571 10.16H266.787V21.296Z" fill="url(#paint0_linear_201_2)"/>
<defs>
<linearGradient id="paint0_linear_201_2" x1="189.702" y1="38.4658" x2="285.561" y2="39.2161" gradientUnits="userSpaceOnUse">
<stop offset="0.0924104" stop-color="#4D37CF"/>
<stop offset="1" stop-color="#FF0000"/>
</linearGradient>
</defs>
</svg>
